<?xml version="1.0" encoding="iso-8859-1"?>
<!-- Generator: Adobe Illustrator 18.1.1, SVG Export Plug-In . SVG Version: 6.00 Build 0)  -->
<svg version="1.1" id="Capa_1" xmlns="http://www.w3.org/2000/svg" xmlns:xlink="http://www.w3.org/1999/xlink" x="0px" y="0px"
	 viewBox="0 0 17.158 17.158" style="enable-background:new 0 0 17.158 17.158;" xml:space="preserve">
<g>
	<g>
		<path style="fill:#030104;" d="M12.876,0H4.281C3.552,0,2.959,0.594,2.959,1.322v13.601c0,0.729,0.593,1.322,1.322,1.322h0.022
			c-0.013,0.056-0.022,0.112-0.022,0.173c0,0.409,0.332,0.74,0.74,0.74H5.43c0.409,0,0.74-0.331,0.74-0.74
			c0-0.061-0.009-0.117-0.023-0.173h4.957c-0.014,0.056-0.022,0.112-0.022,0.173c0,0.409,0.331,0.74,0.739,0.74h0.409
			c0.409,0,0.74-0.331,0.74-0.74c0-0.063-0.01-0.122-0.024-0.18c0.696-0.037,1.253-0.61,1.253-1.315V1.322
			C14.198,0.594,13.604,0,12.876,0z M4.281,1.133h8.595c0.104,0,0.188,0.085,0.188,0.189v4.739H4.092V1.322
			C4.092,1.218,4.177,1.133,4.281,1.133z M12.876,15.111H4.281c-0.104,0-0.189-0.085-0.189-0.188V7.195h8.973v7.728
			C13.064,15.026,12.979,15.111,12.876,15.111z"/>
		<rect x="5.036" y="2.55" style="fill:#030104;" width="1.134" height="1.653"/>
		<rect x="5.036" y="8.122" style="fill:#030104;" width="1.134" height="2.507"/>
	</g>
</g>
<g>
</g>
<g>
</g>
<g>
</g>
<g>
</g>
<g>
</g>
<g>
</g>
<g>
</g>
<g>
</g>
<g>
</g>
<g>
</g>
<g>
</g>
<g>
</g>
<g>
</g>
<g>
</g>
<g>
</g>
</svg>
